<svg id="visual" viewBox="0 0 1920 1080" width="1920" height="1080" xmlns="http://www.w3.org/2000/svg" xmlns:xlink="http://www.w3.org/1999/xlink" version="1.1"><rect x="0" y="0" width="1920" height="1080" fill="#001220"></rect><defs><linearGradient id="grad1_0" x1="43.8%" y1="100%" x2="100%" y2="0%"><stop offset="14.444444444444446%" stop-color="#0f2a52" stop-opacity="1"></stop><stop offset="85.55555555555554%" stop-color="#0f2a52" stop-opacity="1"></stop></linearGradient></defs><defs><linearGradient id="grad1_1" x1="43.8%" y1="100%" x2="100%" y2="0%"><stop offset="14.444444444444446%" stop-color="#0f2a52" stop-opacity="1"></stop><stop offset="85.55555555555554%" stop-color="#08264a" stop-opacity="1"></stop></linearGradient></defs><defs><linearGradient id="grad1_2" x1="43.8%" y1="100%" x2="100%" y2="0%"><stop offset="14.444444444444446%" stop-color="#042341" stop-opacity="1"></stop><stop offset="85.55555555555554%" stop-color="#08264a" stop-opacity="1"></stop></linearGradient></defs><defs><linearGradient id="grad1_3" x1="43.8%" y1="100%" x2="100%" y2="0%"><stop offset="14.444444444444446%" stop-color="#042341" stop-opacity="1"></stop><stop offset="85.55555555555554%" stop-color="#021f39" stop-opacity="1"></stop></linearGradient></defs><defs><linearGradient id="grad1_4" x1="43.8%" y1="100%" x2="100%" y2="0%"><stop offset="14.444444444444446%" stop-color="#021b30" stop-opacity="1"></stop><stop offset="85.55555555555554%" stop-color="#021f39" stop-opacity="1"></stop></linearGradient></defs><defs><linearGradient id="grad1_5" x1="43.8%" y1="100%" x2="100%" y2="0%"><stop offset="14.444444444444446%" stop-color="#021b30" stop-opacity="1"></stop><stop offset="85.55555555555554%" stop-color="#021728" stop-opacity="1"></stop></linearGradient></defs><defs><linearGradient id="grad1_6" x1="43.8%" y1="100%" x2="100%" y2="0%"><stop offset="14.444444444444446%" stop-color="#001220" stop-opacity="1"></stop><stop offset="85.55555555555554%" stop-color="#021728" stop-opacity="1"></stop></linearGradient></defs><defs><linearGradient id="grad2_0" x1="0%" y1="100%" x2="56.3%" y2="0%"><stop offset="14.444444444444446%" stop-color="#0f2a52" stop-opacity="1"></stop><stop offset="85.55555555555554%" stop-color="#0f2a52" stop-opacity="1"></stop></linearGradient></defs><defs><linearGradient id="grad2_1" x1="0%" y1="100%" x2="56.3%" y2="0%"><stop offset="14.444444444444446%" stop-color="#08264a" stop-opacity="1"></stop><stop offset="85.55555555555554%" stop-color="#0f2a52" stop-opacity="1"></stop></linearGradient></defs><defs><linearGradient id="grad2_2" x1="0%" y1="100%" x2="56.3%" y2="0%"><stop offset="14.444444444444446%" stop-color="#08264a" stop-opacity="1"></stop><stop offset="85.55555555555554%" stop-color="#042341" stop-opacity="1"></stop></linearGradient></defs><defs><linearGradient id="grad2_3" x1="0%" y1="100%" x2="56.3%" y2="0%"><stop offset="14.444444444444446%" stop-color="#021f39" stop-opacity="1"></stop><stop offset="85.55555555555554%" stop-color="#042341" stop-opacity="1"></stop></linearGradient></defs><defs><linearGradient id="grad2_4" x1="0%" y1="100%" x2="56.3%" y2="0%"><stop offset="14.444444444444446%" stop-color="#021f39" stop-opacity="1"></stop><stop offset="85.55555555555554%" stop-color="#021b30" stop-opacity="1"></stop></linearGradient></defs><defs><linearGradient id="grad2_5" x1="0%" y1="100%" x2="56.3%" y2="0%"><stop offset="14.444444444444446%" stop-color="#021728" stop-opacity="1"></stop><stop offset="85.55555555555554%" stop-color="#021b30" stop-opacity="1"></stop></linearGradient></defs><defs><linearGradient id="grad2_6" x1="0%" y1="100%" x2="56.3%" y2="0%"><stop offset="14.444444444444446%" stop-color="#021728" stop-opacity="1"></stop><stop offset="85.55555555555554%" stop-color="#001220" stop-opacity="1"></stop></linearGradient></defs><g transform="translate(1920, 1080)"><path d="M-972 0C-948.3 -123.2 -924.6 -246.4 -881.4 -365.1C-838.2 -483.7 -775.5 -597.8 -687.3 -687.3C-599.1 -776.8 -485.4 -841.7 -366.6 -885.1C-247.8 -928.4 -123.9 -950.2 0 -972L0 0Z" fill="#011424"></path><path d="M-833.1 0C-812.8 -105.6 -792.5 -211.2 -755.5 -312.9C-718.4 -414.6 -664.7 -512.4 -589.1 -589.1C-513.5 -665.8 -416.1 -721.5 -314.2 -758.6C-212.4 -795.8 -106.2 -814.5 0 -833.1L0 0Z" fill="#02192c"></path><path d="M-694.3 0C-677.3 -88 -660.4 -176 -629.6 -260.8C-598.7 -345.5 -553.9 -427 -490.9 -490.9C-427.9 -554.9 -346.7 -601.2 -261.9 -632.2C-177 -663.2 -88.5 -678.7 0 -694.3L0 0Z" fill="#021d34"></path><path d="M-555.4 0C-541.9 -70.4 -528.3 -140.8 -503.6 -208.6C-479 -276.4 -443.1 -341.6 -392.7 -392.7C-342.4 -443.9 -277.4 -481 -209.5 -505.8C-141.6 -530.5 -70.8 -543 0 -555.4L0 0Z" fill="#03213d"></path><path d="M-416.6 0C-406.4 -52.8 -396.2 -105.6 -377.7 -156.5C-359.2 -207.3 -332.4 -256.2 -294.6 -294.6C-256.8 -332.9 -208 -360.7 -157.1 -379.3C-106.2 -397.9 -53.1 -407.2 0 -416.6L0 0Z" fill="#062445"></path><path d="M-277.7 0C-270.9 -35.2 -264.2 -70.4 -251.8 -104.3C-239.5 -138.2 -221.6 -170.8 -196.4 -196.4C-171.2 -221.9 -138.7 -240.5 -104.7 -252.9C-70.8 -265.3 -35.4 -271.5 0 -277.7L0 0Z" fill="#0b284e"></path><path d="M-138.9 0C-135.5 -17.6 -132.1 -35.2 -125.9 -52.2C-119.7 -69.1 -110.8 -85.4 -98.2 -98.2C-85.6 -111 -69.3 -120.2 -52.4 -126.4C-35.4 -132.6 -17.7 -135.7 0 -138.9L0 0Z" fill="#0f2a52"></path></g><g transform="translate(0, 0)"><path d="M972 0C957.9 125.5 943.7 251 898 372C852.3 492.9 775 609.4 672.5 672.5C569.9 735.5 442 745.2 325.7 786.2C209.4 827.2 104.7 899.6 0 972L0 0Z" fill="#011424"></path><path d="M833.1 0C821 107.6 808.9 215.1 769.7 318.8C730.5 422.5 664.3 522.3 576.4 576.4C488.5 630.4 378.8 638.7 279.1 673.9C179.5 709.1 89.7 771.1 0 833.1L0 0Z" fill="#02192c"></path><path d="M694.3 0C684.2 89.6 674.1 179.3 641.4 265.7C608.8 352.1 553.6 435.3 480.3 480.3C407.1 525.4 315.7 532.3 232.6 561.6C149.5 590.9 74.8 642.6 0 694.3L0 0Z" fill="#021d34"></path><path d="M555.4 0C547.3 71.7 539.3 143.4 513.1 212.6C487 281.7 442.9 348.2 384.3 384.3C325.6 420.3 252.5 425.8 186.1 449.3C119.6 472.7 59.8 514.1 0 555.4L0 0Z" fill="#03213d"></path><path d="M416.6 0C410.5 53.8 404.4 107.6 384.9 159.4C365.3 211.3 332.2 261.2 288.2 288.2C244.2 315.2 189.4 319.4 139.6 337C89.7 354.5 44.9 385.6 0 416.6L0 0Z" fill="#062445"></path><path d="M277.7 0C273.7 35.9 269.6 71.7 256.6 106.3C243.5 140.8 221.4 174.1 192.1 192.1C162.8 210.1 126.3 212.9 93 224.6C59.8 236.4 29.9 257 0 277.7L0 0Z" fill="#0b284e"></path><path d="M138.9 0C136.8 17.9 134.8 35.9 128.3 53.1C121.8 70.4 110.7 87.1 96.1 96.1C81.4 105.1 63.1 106.5 46.5 112.3C29.9 118.2 15 128.5 0 138.9L0 0Z" fill="#0f2a52"></path></g></svg>