<svg id="visual" viewBox="0 0 960 540" width="960" height="540" xmlns="http://www.w3.org/2000/svg" xmlns:xlink="http://www.w3.org/1999/xlink" version="1.1"><g stroke-width="1" stroke-linejoin="bevel"><path d="M423.7 295L341 345L450.7 332Z" fill="#071c2e" stroke="#071c2e"></path><path d="M341 345L413.7 467L450.7 332Z" fill="#041624" stroke="#041624"></path><path d="M341 345L281 432L413.7 467Z" fill="#071b2c" stroke="#071b2c"></path><path d="M511.3 197L428.7 200L423.7 295Z" fill="#071c2e" stroke="#071c2e"></path><path d="M423.7 295L280 252L341 345Z" fill="#071b2c" stroke="#071b2c"></path><path d="M341 345L240.3 374L281 432Z" fill="#041624" stroke="#041624"></path><path d="M333 180L280 252L423.7 295Z" fill="#071c2e" stroke="#071c2e"></path><path d="M280 252L240.3 374L341 345Z" fill="#00101c" stroke="#00101c"></path><path d="M534.3 483L565.3 342L450.7 332Z" fill="#081e31" stroke="#081e31"></path><path d="M450.7 332L511.3 197L423.7 295Z" fill="#02121f" stroke="#02121f"></path><path d="M333 180L251.3 252L280 252Z" fill="#00101c" stroke="#00101c"></path><path d="M280 252L251.3 252L240.3 374Z" fill="#00101c" stroke="#00101c"></path><path d="M428.7 200L333 180L423.7 295Z" fill="#00101c" stroke="#00101c"></path><path d="M571.3 255L511.3 197L450.7 332Z" fill="#0a2136" stroke="#0a2136"></path><path d="M428.7 200L433.7 80L333 180Z" fill="#031421" stroke="#031421"></path><path d="M565.3 342L571.3 255L450.7 332Z" fill="#041624" stroke="#041624"></path><path d="M413.7 467L534.3 483L450.7 332Z" fill="#061929" stroke="#061929"></path><path d="M283 540L416.7 540L413.7 467Z" fill="#071b2c" stroke="#071b2c"></path><path d="M413.7 467L416.7 540L534.3 483Z" fill="#091f33" stroke="#091f33"></path><path d="M240.3 374L208.3 447L281 432Z" fill="#091f33" stroke="#091f33"></path><path d="M281 432L283 540L413.7 467Z" fill="#071c2e" stroke="#071c2e"></path><path d="M109.7 337L208.3 447L240.3 374Z" fill="#071b2c" stroke="#071b2c"></path><path d="M208.3 447L283 540L281 432Z" fill="#00101c" stroke="#00101c"></path><path d="M676 362L628 293L565.3 342Z" fill="#061929" stroke="#061929"></path><path d="M565.3 342L628 293L571.3 255Z" fill="#031421" stroke="#031421"></path><path d="M646 84L498.3 69L511.3 197Z" fill="#061929" stroke="#061929"></path><path d="M416.7 540L546.3 540L534.3 483Z" fill="#00101c" stroke="#00101c"></path><path d="M534.3 483L641 471L565.3 342Z" fill="#081e31" stroke="#081e31"></path><path d="M208.3 447L218.3 540L283 540Z" fill="#041624" stroke="#041624"></path><path d="M333 180L188.3 178L251.3 252Z" fill="#051726" stroke="#051726"></path><path d="M251.3 252L109.7 337L240.3 374Z" fill="#00101c" stroke="#00101c"></path><path d="M498.3 69L433.7 80L511.3 197Z" fill="#041624" stroke="#041624"></path><path d="M511.3 197L433.7 80L428.7 200Z" fill="#00101c" stroke="#00101c"></path><path d="M333 180L304 70L188.3 178Z" fill="#071b2c" stroke="#071b2c"></path><path d="M546.3 540L641 471L534.3 483Z" fill="#00101c" stroke="#00101c"></path><path d="M188.3 178L137.7 239L251.3 252Z" fill="#091f33" stroke="#091f33"></path><path d="M208.3 447L82.7 454L218.3 540Z" fill="#02121f" stroke="#02121f"></path><path d="M641 471L676 362L565.3 342Z" fill="#071c2e" stroke="#071c2e"></path><path d="M137.7 239L109.7 337L251.3 252Z" fill="#071b2c" stroke="#071b2c"></path><path d="M433.7 80L304 70L333 180Z" fill="#091f33" stroke="#091f33"></path><path d="M676 212L511.3 197L571.3 255Z" fill="#00101c" stroke="#00101c"></path><path d="M287 0L250.3 51L304 70Z" fill="#031421" stroke="#031421"></path><path d="M676 212L571.3 255L628 293Z" fill="#02121f" stroke="#02121f"></path><path d="M769.7 294L676 212L628 293Z" fill="#00101c" stroke="#00101c"></path><path d="M287 0L304 70L433.7 80Z" fill="#00101c" stroke="#00101c"></path><path d="M304 70L250.3 51L188.3 178Z" fill="#081e31" stroke="#081e31"></path><path d="M188.3 178L84.7 177L137.7 239Z" fill="#071b2c" stroke="#071b2c"></path><path d="M723.7 452L725.7 361L676 362Z" fill="#031421" stroke="#031421"></path><path d="M676 362L769.7 294L628 293Z" fill="#091f33" stroke="#091f33"></path><path d="M546.3 540L662 540L641 471Z" fill="#041624" stroke="#041624"></path><path d="M641 471L723.7 452L676 362Z" fill="#051726" stroke="#051726"></path><path d="M109.7 337L82.7 454L208.3 447Z" fill="#031421" stroke="#031421"></path><path d="M662 540L723.7 452L641 471Z" fill="#031421" stroke="#031421"></path><path d="M555.3 0L460.7 0L498.3 69Z" fill="#071b2c" stroke="#071b2c"></path><path d="M498.3 69L460.7 0L433.7 80Z" fill="#071c2e" stroke="#071c2e"></path><path d="M0 245L0 326L109.7 337Z" fill="#091f33" stroke="#091f33"></path><path d="M109.7 337L0 326L82.7 454Z" fill="#0a2136" stroke="#0a2136"></path><path d="M93.7 74L84.7 177L188.3 178Z" fill="#041624" stroke="#041624"></path><path d="M730.7 73L646 84L676 212Z" fill="#02121f" stroke="#02121f"></path><path d="M676 212L646 84L511.3 197Z" fill="#0a2136" stroke="#0a2136"></path><path d="M460.7 0L287 0L433.7 80Z" fill="#091f33" stroke="#091f33"></path><path d="M250.3 51L93.7 74L188.3 178Z" fill="#071c2e" stroke="#071c2e"></path><path d="M287 0L243.3 0L250.3 51Z" fill="#0a2136" stroke="#0a2136"></path><path d="M843.3 297L769.7 294L725.7 361Z" fill="#081e31" stroke="#081e31"></path><path d="M725.7 361L769.7 294L676 362Z" fill="#041624" stroke="#041624"></path><path d="M646 84L555.3 0L498.3 69Z" fill="#081e31" stroke="#081e31"></path><path d="M0 478L71.7 540L82.7 454Z" fill="#041624" stroke="#041624"></path><path d="M82.7 454L71.7 540L218.3 540Z" fill="#081e31" stroke="#081e31"></path><path d="M662 540L721.7 540L723.7 452Z" fill="#081e31" stroke="#081e31"></path><path d="M881.3 339L843.3 297L725.7 361Z" fill="#071b2c" stroke="#071b2c"></path><path d="M0 245L109.7 337L137.7 239Z" fill="#031421" stroke="#031421"></path><path d="M243.3 0L93.7 74L250.3 51Z" fill="#041624" stroke="#041624"></path><path d="M84.7 177L0 245L137.7 239Z" fill="#051726" stroke="#051726"></path><path d="M0 140L0 245L84.7 177Z" fill="#081e31" stroke="#081e31"></path><path d="M730.7 73L618 0L646 84Z" fill="#041624" stroke="#041624"></path><path d="M646 84L618 0L555.3 0Z" fill="#041624" stroke="#041624"></path><path d="M769.7 294L782.7 201L676 212Z" fill="#0a2136" stroke="#0a2136"></path><path d="M0 326L0 478L82.7 454Z" fill="#0a2136" stroke="#0a2136"></path><path d="M782.7 201L730.7 73L676 212Z" fill="#0a2136" stroke="#0a2136"></path><path d="M0 478L0 540L71.7 540Z" fill="#031421" stroke="#031421"></path><path d="M93.7 74L0 140L84.7 177Z" fill="#041624" stroke="#041624"></path><path d="M881.3 339L725.7 361L867.3 463Z" fill="#031421" stroke="#031421"></path><path d="M769.7 294L848.3 212L782.7 201Z" fill="#071c2e" stroke="#071c2e"></path><path d="M782.7 201L866.3 76L730.7 73Z" fill="#071b2c" stroke="#071b2c"></path><path d="M93.7 74L0 92L0 140Z" fill="#041624" stroke="#041624"></path><path d="M69.7 0L0 92L93.7 74Z" fill="#071c2e" stroke="#071c2e"></path><path d="M843.3 297L848.3 212L769.7 294Z" fill="#051726" stroke="#051726"></path><path d="M243.3 0L69.7 0L93.7 74Z" fill="#031421" stroke="#031421"></path><path d="M867.3 463L725.7 361L723.7 452Z" fill="#00101c" stroke="#00101c"></path><path d="M843.3 297L960 269L848.3 212Z" fill="#031421" stroke="#031421"></path><path d="M856.3 540L867.3 463L723.7 452Z" fill="#091f33" stroke="#091f33"></path><path d="M866.3 76L756.7 0L730.7 73Z" fill="#051726" stroke="#051726"></path><path d="M730.7 73L756.7 0L618 0Z" fill="#041624" stroke="#041624"></path><path d="M721.7 540L856.3 540L723.7 452Z" fill="#041624" stroke="#041624"></path><path d="M69.7 0L0 0L0 92Z" fill="#091f33" stroke="#091f33"></path><path d="M960 153L866.3 76L848.3 212Z" fill="#02121f" stroke="#02121f"></path><path d="M848.3 212L866.3 76L782.7 201Z" fill="#071b2c" stroke="#071b2c"></path><path d="M960 424L960 323L881.3 339Z" fill="#0a2136" stroke="#0a2136"></path><path d="M881.3 339L960 269L843.3 297Z" fill="#061929" stroke="#061929"></path><path d="M960 424L881.3 339L867.3 463Z" fill="#02121f" stroke="#02121f"></path><path d="M960 0L849.3 0L866.3 76Z" fill="#0a2136" stroke="#0a2136"></path><path d="M866.3 76L849.3 0L756.7 0Z" fill="#031421" stroke="#031421"></path><path d="M960 323L960 269L881.3 339Z" fill="#081e31" stroke="#081e31"></path><path d="M960 540L960 424L867.3 463Z" fill="#071b2c" stroke="#071b2c"></path><path d="M960 269L960 153L848.3 212Z" fill="#051726" stroke="#051726"></path><path d="M856.3 540L960 540L867.3 463Z" fill="#051726" stroke="#051726"></path><path d="M960 153L960 57L866.3 76Z" fill="#041624" stroke="#041624"></path><path d="M960 57L960 0L866.3 76Z" fill="#031421" stroke="#031421"></path></g></svg>